<svg width="108" height="88" viewBox="0 0 108 88" fill="none" xmlns="http://www.w3.org/2000/svg">
<g filter="url(#filter0_d_1_3)">
<rect x="4.5" y="0.5" width="99" height="79" rx="19.5" fill="#0B7596" stroke="black"/>
<g filter="url(#filter1_d_1_3)">
<path d="M30.7679 36V29.268L28.6259 34.002H26.7539L24.6119 29.268V36H21.1019V23.22H24.9359L27.6899 29.232L30.4619 23.22H34.2779V36H30.7679ZM36.2312 36V26.532H39.6512V36H36.2312ZM36.2312 25.74V22.86H39.6512V25.74H36.2312ZM41.3096 22.86H44.7296V32.238C44.7296 32.586 44.8016 32.856 44.9456 33.048C45.1016 33.228 45.3236 33.318 45.6116 33.318C45.7556 33.318 45.9116 33.294 46.0796 33.246C46.2476 33.198 46.4036 33.132 46.5476 33.048L46.9796 35.568C46.5716 35.76 46.1096 35.91 45.5936 36.018C45.0896 36.126 44.6096 36.18 44.1536 36.18C43.2416 36.18 42.5396 35.946 42.0476 35.478C41.5556 34.998 41.3096 34.32 41.3096 33.444V22.86ZM47.708 22.86H51.128V32.238C51.128 32.586 51.2 32.856 51.344 33.048C51.5 33.228 51.722 33.318 52.01 33.318C52.154 33.318 52.31 33.294 52.478 33.246C52.646 33.198 52.802 33.132 52.946 33.048L53.378 35.568C52.97 35.76 52.508 35.91 51.992 36.018C51.488 36.126 51.008 36.18 50.552 36.18C49.64 36.18 48.938 35.946 48.446 35.478C47.954 34.998 47.708 34.32 47.708 33.444V22.86ZM58.8405 36.18C58.0125 36.18 57.2745 36.054 56.6265 35.802C55.9785 35.538 55.4325 35.184 54.9885 34.74C54.5565 34.296 54.2265 33.786 53.9985 33.21C53.7705 32.634 53.6565 32.028 53.6565 31.392C53.6565 30.48 53.8545 29.646 54.2505 28.89C54.6465 28.122 55.2285 27.51 55.9965 27.054C56.7645 26.586 57.7125 26.352 58.8405 26.352C59.9685 26.352 60.9165 26.58 61.6845 27.036C62.4525 27.492 63.0345 28.092 63.4305 28.836C63.8265 29.58 64.0245 30.39 64.0245 31.266C64.0245 31.446 64.0125 31.632 63.9885 31.824C63.9765 32.004 63.9585 32.166 63.9345 32.31H57.2925C57.3165 32.646 57.4065 32.922 57.5625 33.138C57.7305 33.342 57.9345 33.492 58.1745 33.588C58.4265 33.684 58.6845 33.732 58.9485 33.732C59.3205 33.732 59.6685 33.648 59.9925 33.48C60.3285 33.312 60.5505 33.078 60.6585 32.778L63.5565 33.606C63.3045 34.11 62.9505 34.554 62.4945 34.938C62.0505 35.322 61.5225 35.628 60.9105 35.856C60.2985 36.072 59.6085 36.18 58.8405 36.18ZM57.2205 30.258H60.3525C60.3165 29.946 60.2265 29.682 60.0825 29.466C59.9505 29.25 59.7705 29.082 59.5425 28.962C59.3265 28.842 59.0745 28.782 58.7865 28.782C58.4985 28.782 58.2405 28.842 58.0125 28.962C57.7965 29.082 57.6165 29.25 57.4725 29.466C57.3405 29.682 57.2565 29.946 57.2205 30.258ZM71.5732 29.448C70.9132 29.448 70.3132 29.52 69.7732 29.664C69.2332 29.808 68.8312 30.048 68.5672 30.384V36H65.1472V26.532H68.2792V28.332C68.6152 27.696 69.0352 27.21 69.5392 26.874C70.0432 26.526 70.5772 26.352 71.1412 26.352C71.2732 26.352 71.3632 26.352 71.4112 26.352C71.4712 26.352 71.5252 26.358 71.5732 26.37V29.448ZM72.487 28.098L72.955 25.74H72.019V22.86H75.565V25.83L74.809 28.098H72.487ZM79.5975 36.18C78.7695 36.18 77.9535 36.048 77.1495 35.784C76.3575 35.508 75.6855 35.112 75.1335 34.596L76.3035 32.49C76.8915 32.874 77.4555 33.174 77.9955 33.39C78.5475 33.606 79.0455 33.714 79.4895 33.714C79.7415 33.714 79.9275 33.684 80.0475 33.624C80.1675 33.552 80.2275 33.438 80.2275 33.282C80.2275 33.174 80.1855 33.084 80.1015 33.012C80.0175 32.94 79.8795 32.868 79.6875 32.796C79.5075 32.724 79.2735 32.646 78.9855 32.562C78.2415 32.298 77.6175 32.052 77.1135 31.824C76.6215 31.596 76.2495 31.32 75.9975 30.996C75.7575 30.66 75.6375 30.216 75.6375 29.664C75.6375 29.016 75.7995 28.446 76.1235 27.954C76.4475 27.45 76.9095 27.054 77.5095 26.766C78.1215 26.478 78.8535 26.334 79.7055 26.334C80.3415 26.334 80.9775 26.436 81.6135 26.64C82.2615 26.832 82.8855 27.186 83.4855 27.702L82.1895 29.79C81.5895 29.418 81.0795 29.154 80.6595 28.998C80.2515 28.842 79.8855 28.764 79.5615 28.764C79.4055 28.764 79.2675 28.782 79.1475 28.818C79.0395 28.854 78.9555 28.908 78.8955 28.98C78.8355 29.052 78.8055 29.148 78.8055 29.268C78.8055 29.388 78.8475 29.49 78.9315 29.574C79.0155 29.646 79.1475 29.718 79.3275 29.79C79.5075 29.85 79.7355 29.922 80.0115 30.006C80.8275 30.246 81.4935 30.492 82.0095 30.744C82.5255 30.984 82.9035 31.278 83.1435 31.626C83.3955 31.974 83.5215 32.43 83.5215 32.994C83.5215 33.99 83.1675 34.77 82.4595 35.334C81.7635 35.898 80.8095 36.18 79.5975 36.18ZM33.7826 57V50.268L31.6406 55.002H29.7686L27.6266 50.268V57H24.1166V44.22H27.9506L30.7046 50.232L33.4766 44.22H37.2926V57H33.7826ZM38.5832 54.138C38.5832 53.502 38.7572 52.944 39.1052 52.464C39.4532 51.972 39.9332 51.588 40.5452 51.312C41.1692 51.036 41.8772 50.898 42.6692 50.898C43.0412 50.898 43.3892 50.928 43.7132 50.988C44.0492 51.048 44.3372 51.138 44.5772 51.258V50.97C44.5772 50.526 44.4452 50.196 44.1812 49.98C43.9292 49.764 43.5152 49.656 42.9392 49.656C42.4112 49.656 41.9132 49.746 41.4452 49.926C40.9892 50.094 40.5092 50.346 40.0052 50.682L39.0152 48.558C39.6512 48.15 40.3172 47.85 41.0132 47.658C41.7212 47.454 42.4772 47.352 43.2812 47.352C44.7812 47.352 45.9392 47.694 46.7552 48.378C47.5832 49.05 47.9972 50.052 47.9972 51.384V53.22C47.9972 53.544 48.0452 53.772 48.1412 53.904C48.2372 54.024 48.4052 54.096 48.6452 54.12V57C48.3692 57.06 48.1052 57.102 47.8532 57.126C47.6132 57.162 47.3972 57.18 47.2052 57.18C46.5932 57.18 46.1252 57.072 45.8012 56.856C45.4892 56.628 45.2852 56.298 45.1892 55.866L45.1172 55.524C44.6972 56.064 44.2112 56.478 43.6592 56.766C43.1072 57.042 42.5192 57.18 41.8952 57.18C41.2712 57.18 40.7072 57.048 40.2032 56.784C39.6992 56.52 39.3032 56.16 39.0152 55.704C38.7272 55.236 38.5832 54.714 38.5832 54.138ZM44.1272 54.372C44.2592 54.276 44.3672 54.174 44.4512 54.066C44.5352 53.946 44.5772 53.826 44.5772 53.706V53.004C44.3852 52.932 44.1632 52.872 43.9112 52.824C43.6712 52.776 43.4552 52.752 43.2632 52.752C42.8552 52.752 42.5072 52.854 42.2192 53.058C41.9432 53.262 41.8052 53.52 41.8052 53.832C41.8052 54 41.8532 54.156 41.9492 54.3C42.0452 54.432 42.1772 54.54 42.3452 54.624C42.5132 54.696 42.7052 54.732 42.9212 54.732C43.1252 54.732 43.3352 54.702 43.5512 54.642C43.7792 54.57 43.9712 54.48 44.1272 54.372ZM56.3066 50.448C55.6466 50.448 55.0466 50.52 54.5066 50.664C53.9666 50.808 53.5646 51.048 53.3006 51.384V57H49.8806V47.532H53.0126V49.332C53.3486 48.696 53.7686 48.21 54.2726 47.874C54.7766 47.526 55.3106 47.352 55.8746 47.352C56.0066 47.352 56.0966 47.352 56.1446 47.352C56.2046 47.352 56.2586 47.358 56.3066 47.37V50.448ZM63.6149 57L61.4729 53.544L60.7889 54.3V57H57.3689V43.86H60.7889V51.042L63.3089 47.532H66.9089L63.6509 51.672L67.2329 57H63.6149ZM72.0328 57.18C71.2048 57.18 70.4668 57.054 69.8188 56.802C69.1708 56.538 68.6248 56.184 68.1808 55.74C67.7488 55.296 67.4188 54.786 67.1908 54.21C66.9628 53.634 66.8488 53.028 66.8488 52.392C66.8488 51.48 67.0468 50.646 67.4428 49.89C67.8388 49.122 68.4208 48.51 69.1888 48.054C69.9568 47.586 70.9048 47.352 72.0328 47.352C73.1608 47.352 74.1088 47.58 74.8768 48.036C75.6448 48.492 76.2268 49.092 76.6228 49.836C77.0188 50.58 77.2168 51.39 77.2168 52.266C77.2168 52.446 77.2048 52.632 77.1808 52.824C77.1688 53.004 77.1508 53.166 77.1268 53.31H70.4848C70.5088 53.646 70.5988 53.922 70.7548 54.138C70.9228 54.342 71.1268 54.492 71.3668 54.588C71.6188 54.684 71.8768 54.732 72.1408 54.732C72.5128 54.732 72.8608 54.648 73.1848 54.48C73.5208 54.312 73.7428 54.078 73.8508 53.778L76.7488 54.606C76.4968 55.11 76.1428 55.554 75.6868 55.938C75.2428 56.322 74.7148 56.628 74.1028 56.856C73.4908 57.072 72.8008 57.18 72.0328 57.18ZM70.4128 51.258H73.5448C73.5088 50.946 73.4188 50.682 73.2748 50.466C73.1428 50.25 72.9628 50.082 72.7348 49.962C72.5188 49.842 72.2668 49.782 71.9788 49.782C71.6908 49.782 71.4328 49.842 71.2048 49.962C70.9888 50.082 70.8088 50.25 70.6648 50.466C70.5328 50.682 70.4488 50.946 70.4128 51.258ZM84.8761 56.478C84.5641 56.61 84.2281 56.736 83.8681 56.856C83.5201 56.964 83.1601 57.048 82.7881 57.108C82.4281 57.168 82.0741 57.198 81.7261 57.198C81.2101 57.198 80.7361 57.114 80.3041 56.946C79.8721 56.766 79.5241 56.478 79.2601 56.082C79.0081 55.674 78.8821 55.128 78.8821 54.444V50.106H77.7121V47.532H78.8821V44.562H82.3021V47.532H84.1561V50.106H82.3021V53.238C82.3021 53.55 82.3681 53.772 82.5001 53.904C82.6321 54.024 82.8121 54.084 83.0401 54.084C83.2081 54.084 83.4001 54.054 83.6161 53.994C83.8321 53.934 84.0481 53.862 84.2641 53.778L84.8761 56.478Z" fill="url(#paint0_linear_1_3)"/>
</g>
</g>
<defs>
<filter id="filter0_d_1_3" x="0" y="0" width="108" height="88" filterUnits="userSpaceOnUse" color-interpolation-filters="sRGB">
<feFlood flood-opacity="0" result="BackgroundImageFix"/>
<feColorMatrix in="SourceAlpha" type="matrix" values="0 0 0 0 0 0 0 0 0 0 0 0 0 0 0 0 0 0 127 0" result="hardAlpha"/>
<feOffset dy="4"/>
<feGaussianBlur stdDeviation="2"/>
<feComposite in2="hardAlpha" operator="out"/>
<feColorMatrix type="matrix" values="0 0 0 0 0 0 0 0 0 0 0 0 0 0 0 0 0 0 0.25 0"/>
<feBlend mode="normal" in2="BackgroundImageFix" result="effect1_dropShadow_1_3"/>
<feBlend mode="normal" in="SourceGraphic" in2="effect1_dropShadow_1_3" result="shape"/>
</filter>
<filter id="filter1_d_1_3" x="17.1019" y="22.86" width="71.7742" height="42.338" filterUnits="userSpaceOnUse" color-interpolation-filters="sRGB">
<feFlood flood-opacity="0" result="BackgroundImageFix"/>
<feColorMatrix in="SourceAlpha" type="matrix" values="0 0 0 0 0 0 0 0 0 0 0 0 0 0 0 0 0 0 127 0" result="hardAlpha"/>
<feOffset dy="4"/>
<feGaussianBlur stdDeviation="2"/>
<feComposite in2="hardAlpha" operator="out"/>
<feColorMatrix type="matrix" values="0 0 0 0 0 0 0 0 0 0 0 0 0 0 0 0 0 0 0.25 0"/>
<feBlend mode="normal" in2="BackgroundImageFix" result="effect1_dropShadow_1_3"/>
<feBlend mode="normal" in="SourceGraphic" in2="effect1_dropShadow_1_3" result="shape"/>
</filter>
<linearGradient id="paint0_linear_1_3" x1="54" y1="0" x2="54" y2="80" gradientUnits="userSpaceOnUse">
<stop offset="0.1375" stop-color="#F9F361"/>
<stop offset="0.9625" stop-color="white"/>
</linearGradient>
</defs>
</svg>
